<svg width="302" height="142" viewBox="0 0 302 142" fill="none" xmlns="http://www.w3.org/2000/svg">
<mask id="mask0_61_1205" style="mask-type:alpha" maskUnits="userSpaceOnUse" x="0" y="0" width="302" height="142">
<rect width="302" height="142" rx="13" fill="white"/>
</mask>
<g mask="url(#mask0_61_1205)">
<rect width="302" height="142" rx="13" fill="#B8DFE2"/>
<path d="M61.7159 84.5656C58.6492 88.7158 54.0315 91.4571 48.8786 92.1864C43.7258 92.9158 38.4599 91.5735 34.2394 88.4548C30.0189 85.3361 27.1895 80.6965 26.3736 75.5566C25.5578 70.4168 26.8223 65.1977 29.889 61.0475L45.8025 72.8066L61.7159 84.5656Z" fill="#051129"/>
<ellipse cx="45.7542" cy="72.9608" rx="19.8312" ry="8.17797" transform="rotate(38.0475 45.7542 72.9608)" fill="white"/>
<path d="M36.5 110.5L20 101V151H37L36.5 110.5Z" fill="#CA4D27"/>
<path d="M61 104L36.5 110.5V151H61V104Z" fill="#F25C2E"/>
<path d="M36.5 110.5L20 101L44 95.5L61 104L36.5 110.5Z" fill="#94BBBE"/>
</g>
</svg>
