<svg width="32" height="32" viewBox="0 0 32 32" fill="none" xmlns="http://www.w3.org/2000/svg">
<circle cx="16" cy="16" r="16" fill="#A4A4A4"/>
<path d="M15.9996 7C11.037 7 7 11.0374 7 15.9998C7 20.9624 11.0373 25 16 25C20.9627 25 25 20.9626 25 15.9998C24.9998 11.0371 20.9625 7 16 7H15.9996ZM15.9996 23.8747C11.6573 23.8747 8.12484 20.342 8.12484 15.9998C8.12484 11.6576 11.6573 8.12486 15.9996 8.12486C20.3418 8.12486 23.8743 11.6574 23.8743 15.9998C23.8743 20.3421 20.3418 23.8747 15.9996 23.8747V23.8747ZM18.6386 14.1221C18.6386 15.7979 17.7927 16.2852 17.1753 16.6411C16.6412 16.9488 16.3187 17.1347 16.3187 18.0627C16.3187 18.3733 16.0668 18.6253 15.7561 18.6253C15.4455 18.6253 15.1936 18.3735 15.1936 18.0627C15.1936 16.4845 16.014 16.0114 16.6133 15.6662C17.1552 15.3539 17.5132 15.1478 17.5132 14.122C17.5132 13.2871 16.8339 12.6078 15.9991 12.6078C15.1642 12.6078 14.485 13.2871 14.485 14.122C14.485 14.4326 14.2332 14.6845 13.9224 14.6845C13.6118 14.6845 13.3599 14.4327 13.3599 14.122C13.3599 12.6668 14.5438 11.4828 15.999 11.4828C17.4548 11.483 18.6387 12.6669 18.6387 14.1221L18.6386 14.1221ZM16.2834 19.7434V19.9543C16.2834 20.2649 16.0316 20.5169 15.7209 20.5169C15.4103 20.5169 15.1583 20.265 15.1583 19.9543V19.7434C15.1583 19.4328 15.4101 19.1808 15.7209 19.1808C16.0315 19.1808 16.2834 19.4326 16.2834 19.7434Z" fill="white"/>
</svg>
