<svg width="32" height="32" viewBox="0 0 32 32" fill="none" xmlns="http://www.w3.org/2000/svg">
<circle cx="16" cy="16" r="16" fill="#A4A4A4"/>
<path fill-rule="evenodd" clip-rule="evenodd" d="M10.6587 7.00827C10.4822 7.01042 10.3137 7.08359 10.1902 7.21205C10.0667 7.34033 9.99828 7.51333 10 7.69277V11.761C9.99986 12.7285 10.5092 13.6245 11.333 14.1082C11.5454 14.2329 11.7707 14.3233 12.0022 14.3836V25.3216C12.0022 25.5639 12.1294 25.7879 12.3358 25.9092C12.5421 26.0303 12.7965 26.0303 13.0029 25.9092C13.2094 25.7879 13.3366 25.5639 13.3366 25.3216V14.3826C13.5662 14.3222 13.7898 14.2324 14.0004 14.1086C14.8244 13.6248 15.3337 12.729 15.3335 11.7613V7.6931C15.3374 7.51079 15.269 7.33439 15.1435 7.20395C15.0181 7.07351 14.8464 7 14.667 7C14.4875 7 14.3158 7.07353 14.1904 7.20395C14.0649 7.33438 13.9965 7.51078 14.0004 7.6931V11.7613C14.0005 12.2467 13.75 12.6941 13.3366 12.9369V7.69319C13.3384 7.50999 13.2671 7.33377 13.1391 7.20478C13.0112 7.07596 12.8372 7.00512 12.657 7.0087C12.4811 7.01192 12.3136 7.08563 12.191 7.21373C12.0682 7.34201 12.0005 7.51429 12.0022 7.69321V12.9369C11.5886 12.6941 11.333 12.2467 11.333 11.7613V7.69312C11.335 7.51081 11.2644 7.33548 11.1376 7.20667C11.0106 7.07786 10.838 7.00648 10.6587 7.00862L10.6587 7.00827ZM21.3112 7.01757C21.2616 7.01865 21.2124 7.02527 21.1642 7.03743C21.1642 7.03743 21.009 7.08431 20.8348 7.16857C20.6607 7.25284 20.4313 7.38774 20.18 7.59348C19.9286 7.79922 19.6547 8.0758 19.3924 8.44349C19.1301 8.81118 18.8801 9.2679 18.6699 9.8295C18.462 10.3852 18.3172 10.964 18.2169 11.5717C18.1166 12.1795 18.0608 12.8173 18.0293 13.5125C17.998 14.2079 17.9896 14.9597 17.9905 15.7897C17.9912 16.6194 18.0008 17.529 18.0008 18.542V23.9657C18.0005 23.9789 18.0005 23.9922 18.0008 24.0054C18.0008 24.0054 18.0121 24.1496 18.0489 24.3205C18.0858 24.4913 18.1488 24.7191 18.2755 24.9613C18.4021 25.2035 18.5988 25.4644 18.8912 25.6669C19.1836 25.8694 19.5671 25.9964 19.9978 25.9964C20.4284 25.9964 20.817 25.8694 21.1094 25.6669C21.4019 25.4644 21.5934 25.2035 21.7201 24.9613C21.8468 24.7191 21.9134 24.4913 21.9504 24.3205C21.9873 24.1496 21.9947 24.0054 21.9947 24.0054C21.9968 23.9923 21.9986 23.9791 22 23.9657V7.69277C21.9993 7.50957 21.9258 7.33424 21.7961 7.20706C21.6663 7.07986 21.4914 7.01151 21.3112 7.0176L21.3112 7.01757ZM20.6668 9.02455V17.8599H19.3312C19.3287 17.1323 19.324 16.4074 19.3234 15.7894C19.3226 14.9678 19.3287 14.2311 19.3586 13.5719C19.3884 12.9126 19.442 12.3268 19.5303 11.7914C19.6188 11.2559 19.7416 10.7714 19.9144 10.3098C20.0849 9.8543 20.2787 9.50738 20.4703 9.23885C20.5398 9.14153 20.5993 9.10199 20.6668 9.02434L20.6668 9.02455ZM19.3338 19.217H20.6668V23.9193C20.6668 23.9193 20.6654 23.9472 20.6473 24.0306C20.6293 24.114 20.595 24.2238 20.5445 24.3204C20.4939 24.4172 20.4316 24.494 20.357 24.5455C20.2824 24.5972 20.1911 24.6409 19.9978 24.6409C19.8044 24.6409 19.7129 24.5972 19.6385 24.5455C19.5639 24.494 19.5015 24.4172 19.451 24.3204C19.4003 24.2238 19.3662 24.114 19.3481 24.0306C19.3342 23.9662 19.3347 23.9549 19.3338 23.9446L19.3338 19.217Z" fill="white"/>
</svg>
