<svg width="32" height="32" viewBox="0 0 32 32" fill="none" xmlns="http://www.w3.org/2000/svg">
<circle cx="16" cy="16" r="16" fill="#F25C2E"/>
<path d="M24.755 15.5111L17.3219 9.46875C16.946 9.16121 16.4756 9 16.0077 9C15.5373 9 15.0692 9.16122 14.6935 9.46875L7.24667 15.5197C6.9519 15.7605 6.91589 16.182 7.16797 16.4636C7.42005 16.7452 7.86109 16.7796 8.15586 16.5388L9.84376 15.1669V20.8605C9.84376 21.4325 10.0643 21.9593 10.4379 22.3507C10.8092 22.7421 11.3494 23 11.948 23H20.052C20.6507 23 21.1908 22.7419 21.5621 22.3507C21.9357 21.9593 22.1562 21.4325 22.1562 20.8605V15.1583L23.8441 16.5302C24.1389 16.771 24.5824 16.7366 24.832 16.455C25.0841 16.1733 25.0481 15.7496 24.7533 15.5111H24.755ZM16.9413 21.661H15.0575V18.8916C15.0575 18.7044 15.134 18.5411 15.2623 18.4185C15.3906 18.296 15.5615 18.2229 15.7574 18.2229H16.2366C16.4325 18.2229 16.6034 18.296 16.7317 18.4185C16.86 18.5411 16.9364 18.7044 16.9364 18.8916V21.661H16.9413ZM20.7537 20.8632C20.7537 21.102 20.6614 21.3084 20.5265 21.4503C20.3891 21.5901 20.2295 21.661 20.0516 21.661H18.3435V18.8916C18.3435 18.3389 18.1072 17.8315 17.7269 17.4702C17.3487 17.1068 16.8177 16.881 16.2393 16.881H15.76C15.1816 16.881 14.6505 17.1068 14.2724 17.4702C13.892 17.8315 13.6557 18.3389 13.6557 18.8916V21.661H11.9476C11.772 21.661 11.6099 21.5901 11.4728 21.4503C11.3378 21.3106 11.2456 21.1041 11.2456 20.8632V14.03L15.5979 10.4906C15.7284 10.3853 15.8658 10.3422 16.0029 10.3422C16.1403 10.3422 16.2797 10.3851 16.408 10.4906L20.7491 14.0192V20.8633L20.7537 20.8632Z" fill="white"/>
</svg>
