<svg width="32" height="32" viewBox="0 0 32 32" fill="none" xmlns="http://www.w3.org/2000/svg">
<circle cx="16" cy="16" r="16" fill="#A4A4A4"/>
<path d="M15.7712 12.7716C16.5366 12.7716 17.2707 12.4674 17.8119 11.9264C18.3532 11.3852 18.6571 10.6511 18.6571 9.88569C18.6571 9.12031 18.3532 8.38644 17.8119 7.84519C17.2707 7.30393 16.5366 7 15.7712 7C15.0058 7 14.2719 7.30396 13.7307 7.84519C13.1894 8.38645 12.8855 9.12031 12.8855 9.88569C12.8862 10.6508 13.1904 11.3844 13.7314 11.9255C14.2727 12.4665 15.0061 12.7709 15.7712 12.7717L15.7712 12.7716ZM15.7712 8.18375C16.2226 8.18375 16.6554 8.36319 16.9748 8.68229C17.2939 9.00138 17.4731 9.43423 17.4731 9.88566C17.4731 10.3371 17.2939 10.7699 16.9748 11.0893C16.6555 11.4084 16.2226 11.5876 15.7712 11.5876C15.32 11.5876 14.8869 11.4084 14.5678 11.0893C14.2487 10.77 14.0693 10.3371 14.0693 9.88566C14.07 9.43449 14.2497 9.0021 14.5688 8.68304C14.8876 8.36419 15.32 8.1845 15.7712 8.18377L15.7712 8.18375ZM18.8791 13.6476H12.6633H12.6636C12.2221 13.6476 11.7991 13.8229 11.4873 14.1349C11.1753 14.4469 11 14.8701 11 15.3112V21.0297C11 21.1867 11.0623 21.3373 11.1733 21.4481C11.2844 21.5592 11.4351 21.6217 11.592 21.6217H13.0127V25.351C13.0127 25.508 13.0752 25.6586 13.186 25.7697C13.2971 25.8808 13.4477 25.943 13.6047 25.943H17.938C18.0949 25.943 18.2456 25.8808 18.3564 25.7697C18.4675 25.6586 18.53 25.508 18.53 25.351V21.6217H19.9506C20.1076 21.6217 20.2582 21.5592 20.3693 21.4481C20.4801 21.3373 20.5427 21.1867 20.5427 21.0297V15.3112C20.5427 14.87 20.3674 14.4469 20.0553 14.1349C19.7433 13.8229 19.3202 13.6476 18.8791 13.6476H18.8791ZM19.3586 20.4376H18.5297L18.53 17.5607C18.53 17.2338 18.2648 16.9686 17.9379 16.9686C17.611 16.9686 17.3459 17.2338 17.3459 17.5607V24.7594H14.1967V17.5607C14.1967 17.2338 13.9316 16.9686 13.6047 16.9686C13.2778 16.9686 13.0126 17.2338 13.0126 17.5607V20.4376H12.1838V15.3112C12.1855 15.047 12.3993 14.8332 12.6635 14.8317H18.8793H18.8791C19.1432 14.8332 19.3571 15.047 19.3585 15.3112L19.3586 20.4376Z" fill="white"/>
</svg>
