<svg width="32" height="32" viewBox="0 0 32 32" fill="none" xmlns="http://www.w3.org/2000/svg">
<circle cx="16" cy="16" r="16" fill="#B8DFE2"/>
<path d="M8.00006 19.4888C8.00006 19.6896 8.15193 19.8653 8.32544 19.8653H24.9591C25.2845 19.8653 25.5881 19.6896 25.7832 19.3886C25.9784 19.0875 26.0435 18.7112 25.9567 18.3597C25.7181 17.4062 25.1543 16.4777 24.3953 15.6497C24.3737 15.5996 24.3085 15.5493 24.2653 15.4992C23.5063 14.6961 22.552 13.9434 21.4895 13.291C21.4462 13.2659 21.4243 13.2409 21.3811 13.2156C18.7788 11.6348 15.6341 10.6312 13.3788 10.6312H13.3137L12.8366 9.25106C12.7933 9.10059 12.6631 9.00021 12.5331 9.00021L10.711 9C10.6026 9 10.4942 9.07534 10.4291 9.17572C10.364 9.2761 10.364 9.42657 10.4075 9.52696L10.7761 10.6059L8.32549 10.6061C8.15198 10.6061 8.00012 10.7818 8.00012 10.9826C8.00012 11.1834 8.15198 11.3591 8.32549 11.3591H13.3347C15.113 11.3591 17.5636 12.0365 19.7755 13.1658L16.6961 13.1656C16.5877 13.1656 16.501 13.2156 16.4358 13.316C16.3707 13.4164 16.3491 13.5418 16.3926 13.6422L16.9564 15.9005C16.9996 16.0762 17.1299 16.1766 17.2817 16.1766H23.983C24.6336 16.9043 25.1107 17.7072 25.3276 18.5353C25.3493 18.6607 25.3276 18.7862 25.2625 18.8865C25.1974 18.9869 25.089 19.0623 24.9806 19.0623H8.32538C8.15187 19.1125 8 19.2883 8 19.4888L8.00006 19.4888ZM11.5132 10.6561L11.2097 9.80297H12.2724L12.5759 10.6561H11.5132ZM17.4988 15.4741L17.1301 13.9936H21.1638C21.9011 14.4452 22.5952 14.9472 23.1806 15.4741H17.4988Z" fill="white"/>
<path d="M13.769 16.2519H15.5472C15.6556 16.2519 15.7424 16.2018 15.8075 16.1014C15.8726 16.001 15.8942 15.8756 15.8508 15.7752L15.287 13.5169C15.2437 13.3412 15.1135 13.2408 14.9616 13.2408H13.1834C13.075 13.2408 12.9882 13.2909 12.9231 13.3913C12.858 13.4917 12.8364 13.6171 12.8798 13.7175L13.4436 15.9758C13.4871 16.1265 13.6171 16.2519 13.769 16.2519ZM14.7449 13.9936L15.1136 15.4741H14.0292L13.6606 13.9936H14.7449Z" fill="white"/>
<path d="M10.5379 16.2519H12.3161C12.4245 16.2519 12.5113 16.2018 12.5764 16.1014C12.6415 16.001 12.6632 15.8756 12.6197 15.7752L12.0559 13.5169C12.0126 13.3412 11.8824 13.2408 11.7305 13.2408H9.9523C9.8439 13.2408 9.75714 13.2909 9.69203 13.3913C9.62692 13.4917 9.60528 13.6171 9.64874 13.7175L10.2125 15.9758C10.256 16.1265 10.3861 16.2519 10.5379 16.2519ZM11.4921 13.9936L11.8607 15.4741H10.7764L10.4077 13.9936H11.4921Z" fill="white"/>
<path d="M25.6746 21.7471H8.41217C8.23866 21.7471 8.08679 21.9228 8.08679 22.1236C8.08679 22.3243 8.23866 22.5001 8.41217 22.5001L25.6746 22.4998C25.8481 22.4998 26 22.3241 26 22.1234C26 21.9226 25.8481 21.7471 25.6746 21.7471V21.7471Z" fill="white"/>
</svg>
