<svg width="32" height="32" viewBox="0 0 32 32" fill="none" xmlns="http://www.w3.org/2000/svg">
<circle cx="16" cy="16" r="16" fill="#F25C2E"/>
<path d="M24.3569 21.7499H22.1674L16.7322 12.0626L18.4929 8.92444C18.6632 8.6214 18.5482 8.24199 18.2363 8.07636C17.9246 7.91139 17.5344 8.02324 17.364 8.32578L15.9998 10.7575L14.6356 8.32561C14.466 8.02306 14.0771 7.91122 13.7633 8.07619C13.4516 8.24181 13.3364 8.62122 13.5068 8.92427L15.2677 12.0625L9.83241 21.7499H7.64291C7.28812 21.7499 7 22.0298 7 22.3749C7 22.7199 7.28794 23 7.64291 23H24.3571C24.7119 23 25 22.7201 25 22.3749C24.9998 22.0298 24.7119 21.7499 24.3571 21.7499L24.3569 21.7499ZM17.2858 21.7499H14.7144V21.1249C14.7144 20.4355 15.2909 19.8749 16 19.8749C16.7091 19.8749 17.2857 20.4354 17.2857 21.1249L17.2858 21.7499ZM18.5715 21.7499V21.1249C18.5715 19.7461 17.4182 18.6248 16 18.6248C14.5819 18.6248 13.4286 19.7461 13.4286 21.1249V21.7499H11.2976L16.0001 13.3675L20.7026 21.7499H18.5715Z" fill="white"/>
</svg>
