<svg width="32" height="32" viewBox="0 0 32 32" fill="none" xmlns="http://www.w3.org/2000/svg">
<circle cx="16" cy="16" r="16" fill="#B8DFE2"/>
<path d="M10.1523 18.2507C10.1523 17.5389 11.2206 17.5389 11.2206 18.2507C11.2206 18.6861 11.5687 19.0389 11.9985 19.0389C12.4282 19.0389 12.7764 18.6861 12.7764 18.2507C12.7764 17.8153 12.4282 17.4625 11.9985 17.4625C10.979 17.4625 10.1523 16.625 10.1523 15.5921C10.1523 14.7662 10.6871 14.039 11.4642 13.8012V13.333C11.4642 12.6212 12.5324 12.6212 12.5324 13.333V13.8012C13.3095 14.0389 13.8445 14.7662 13.8445 15.5921C13.8445 16.3039 12.7763 16.3039 12.7763 15.5921C12.7763 15.1567 12.4281 14.8039 11.9983 14.8039C11.5686 14.8039 11.2204 15.1567 11.2204 15.5921C11.2204 16.0275 11.5686 16.3802 11.9983 16.3802C13.0176 16.3802 13.8445 17.2178 13.8445 18.2507C13.8445 19.0765 13.3095 19.8041 12.5324 20.0417V20.51C12.5324 21.2218 11.4642 21.2218 11.4642 20.51V20.0417C10.6871 19.8041 10.1523 19.0765 10.1523 18.2507ZM20.3873 17.7403L19.1558 18.4604C19.3838 18.8098 19.6246 19.133 19.8728 19.4266L21.0921 18.7132C20.8477 18.4124 20.6113 18.0872 20.3873 17.7403ZM18.6143 17.5329L19.8458 16.8128C19.1514 15.486 18.5562 13.6967 18.7631 12.1668L18.2374 12.4744C17.658 12.7954 17.6066 13.7693 17.6429 14.3486C17.6617 14.6502 17.7087 14.9712 17.7831 15.3052C17.8103 15.4053 17.8348 15.5061 17.8569 15.6081C18.0209 16.2242 18.2738 16.8776 18.6143 17.5329ZM25.3225 19.8695C26.7544 19.0317 25.3516 15.5126 24.7609 14.4683C24.1111 13.4002 21.8649 10.3493 20.3916 11.2139C18.9519 12.056 20.3741 15.5986 20.9701 16.6447C21.5797 17.6851 23.8745 20.7163 25.3225 19.8695ZM21.8323 19.5272L20.643 20.2226C21.228 20.7448 22.4088 21.5725 23.1685 21.1306L23.6952 20.8213C23.002 20.5348 22.3683 20.0502 21.8323 19.5272ZM17.8944 18.4455C17.8739 18.4096 17.8537 18.3737 17.8335 18.3376C17.191 21.0654 14.7755 22.9995 11.9987 22.9995C8.68584 22.9995 6 20.2783 6 16.9218C6 13.5653 8.68579 10.844 11.9987 10.844C13.8184 10.844 15.5254 11.6734 16.6665 13.1039C16.8096 12.4654 17.1306 11.8767 17.7033 11.5403L19.8582 10.28L19.8592 10.2796L19.861 10.2787L19.8661 10.2757L19.8678 10.2752L19.8689 10.2745L19.8701 10.2741L19.8711 10.2736L19.8727 10.2729L19.874 10.2722L19.8757 10.2715L19.8768 10.2707L19.8785 10.27L19.8796 10.2693L19.8824 10.2684L19.8836 10.2679L19.8854 10.2674L19.8866 10.2667L19.8876 10.2663L19.8899 10.2656L19.8917 10.2647L19.8945 10.2638C22.0427 9.06674 24.7399 12.2363 25.6698 13.9065C26.6062 15.5727 28.0289 19.537 25.857 20.8072L23.702 22.0669C21.5634 23.353 18.8308 20.0916 17.895 18.4489L17.8944 18.4455ZM11.9985 11.926C9.275 11.926 7.06806 14.1623 7.06806 16.9214C7.06806 19.6804 9.27536 21.9168 11.9985 21.9168C14.7217 21.9168 16.929 19.6804 16.929 16.9214C16.929 16.5147 16.8809 16.1195 16.7906 15.7412L16.779 15.6935C16.2274 13.4824 14.2572 11.926 11.9985 11.926Z" fill="white"/>
</svg>
