<svg width="32" height="32" viewBox="0 0 32 32" fill="none" xmlns="http://www.w3.org/2000/svg">
<circle cx="16" cy="16" r="16" fill="#051129"/>
<path d="M6.53912 9.25391C6.20518 9.25391 5.93457 9.50761 5.93457 9.82067C5.93457 10.1337 6.20518 10.3874 6.53912 10.3874H8.46615L10.5444 19.5801C10.6267 19.9262 10.8686 20.2142 11.1743 20.2119H21.2504C21.5698 20.2161 21.8636 19.9446 21.8636 19.6451C21.8636 19.3456 21.5699 19.0742 21.2504 19.0783H11.6653L11.4072 17.9448H22.0566C22.3272 17.9429 22.583 17.7497 22.6422 17.5019L24.0529 11.8342C24.1315 11.5053 23.8268 11.1459 23.4673 11.1434H9.87707L9.54961 9.70291C9.49242 9.45124 9.23212 9.25395 8.95769 9.25427L6.53912 9.25391ZM10.1287 12.2768H22.7049L21.5776 16.8111H11.155L10.1287 12.2768ZM13.1894 20.9676C12.0835 20.9676 11.1741 21.8201 11.1741 22.8569C11.1741 23.8937 12.0835 24.7462 13.1894 24.7462C14.2953 24.7462 15.2047 23.8937 15.2047 22.8569C15.2047 21.8201 14.2953 20.9676 13.1894 20.9676V20.9676ZM19.2349 20.9676C18.129 20.9676 17.2196 21.8201 17.2196 22.8569C17.2196 23.8937 18.129 24.7462 19.2349 24.7462C20.3408 24.7462 21.2502 23.8937 21.2502 22.8569C21.2502 21.8201 20.3408 20.9676 19.2349 20.9676V20.9676ZM13.1894 22.1011C13.6417 22.1011 13.9954 22.4327 13.9954 22.8567C13.9954 23.2808 13.6417 23.6124 13.1894 23.6124C12.7371 23.6124 12.3834 23.2808 12.3834 22.8567C12.3834 22.4327 12.7371 22.1011 13.1894 22.1011V22.1011ZM19.2349 22.1011C19.6872 22.1011 20.0409 22.4327 20.0409 22.8567C20.0409 23.2808 19.6872 23.6124 19.2349 23.6124C18.7826 23.6124 18.4289 23.2808 18.4289 22.8567C18.4289 22.4327 18.7826 22.1011 19.2349 22.1011V22.1011Z" fill="white"/>
</svg>
