<svg width="32" height="32" viewBox="0 0 32 32" fill="none" xmlns="http://www.w3.org/2000/svg">
<circle cx="16" cy="16" r="16" fill="#F25C2E"/>
<path d="M16 17L24 11C25.75 9.5 5.99997 9.5 8 11M8 10.875C8 12 23.5 12.5 24 10.875" stroke="white"/>
<path d="M16 17L8 11" stroke="white"/>
<path d="M16 17V25" stroke="white"/>
<path d="M19.4375 24.7832C19.7774 24.8512 20.047 24.9258 20.2438 25C20.047 25.0742 19.7774 25.1488 19.4375 25.2168C18.5737 25.3896 17.3581 25.5 16 25.5C14.6419 25.5 13.4263 25.3896 12.5625 25.2168C12.2226 25.1488 11.953 25.0742 11.7562 25C11.953 24.9258 12.2226 24.8512 12.5625 24.7832C13.4263 24.6104 14.6419 24.5 16 24.5C17.3581 24.5 18.5737 24.6104 19.4375 24.7832Z" stroke="white"/>
<circle cx="17" cy="14" r="1" fill="white"/>
<path d="M16 15L23 7" stroke="white" stroke-width="0.7" stroke-linecap="round"/>
</svg>
