<svg width="322" height="405" viewBox="0 0 322 405" fill="none" xmlns="http://www.w3.org/2000/svg">
<mask id="mask0_49_116" style="mask-type:alpha" maskUnits="userSpaceOnUse" x="0" y="0" width="322" height="405">
<path d="M0 18.218C0 8.15646 7.8089 0 17.4417 0H304.558C314.192 0 322 8.15648 322 18.218V386.782C322 396.844 314.192 405 304.558 405H17.4417C7.8089 405 0 396.844 0 386.782V18.218Z" fill="#B8DFE2"/>
</mask>
<g mask="url(#mask0_49_116)">
<path d="M403.842 -113.512H-67.0834V465.26H403.842V-113.512Z" fill="#B8DFE2"/>
<path d="M30.8583 388.183V421.116L371.642 444.939L363.592 283.08H126.787V300.597H111.358V317.413H93.9166V332.829H76.4749V351.747H61.7166V369.965H46.2874V388.183H30.8583Z" fill="#F25C2E"/>
<path d="M67.0833 416.211V449.144L407.867 472.967L399.817 311.107H163.012V328.625H147.583V345.441H130.142V360.856H112.7V379.775H97.9416V397.993H82.5124V416.211H67.0833Z" fill="#CA4D27"/>
<path d="M163.012 311.107L126.787 283.08V300.597L163.012 328.625V311.107Z" fill="white"/>
<path d="M147.583 328.625L111.358 300.597V317.414L147.583 345.441V328.625Z" fill="white"/>
<path d="M130.142 345.441L93.9166 317.414V332.829L130.142 360.857V345.441Z" fill="white"/>
<path d="M112.7 360.857L76.475 332.829V351.748L112.7 379.775V360.857Z" fill="white"/>
<path d="M97.9416 379.775L61.7166 351.747V369.965L97.9416 397.993V379.775Z" fill="white"/>
<path d="M82.5125 397.993L46.2875 369.965V388.183L82.5125 415.51V397.993Z" fill="white"/>
<path d="M67.0833 416.211L30.8583 388.183V406.401L67.0833 433.728V416.211Z" fill="white"/>
<path d="M267.049 169.701L224.096 117.716L220.033 121.379L262.986 173.364L267.049 169.701Z" fill="white"/>
<path d="M263.923 172.61L330.588 108.348L326.948 104.229L260.283 168.491L263.923 172.61Z" fill="white"/>
<path d="M226.685 58.2288C234.891 66.9819 239.373 78.8388 239.149 91.1909C238.925 103.543 234.012 115.378 225.49 124.094C216.968 132.809 205.535 137.69 193.707 137.664C181.879 137.637 170.625 132.704 162.419 123.951L194.552 91.0901L226.685 58.2288Z" fill="#051129"/>
<path d="M207.512 105.504C225.773 87.8351 234.922 67.1352 227.946 59.2694C220.971 51.4036 200.512 59.3503 182.25 77.019C163.989 94.6877 154.84 115.388 161.816 123.253C168.791 131.119 189.25 123.172 207.512 105.504Z" fill="#F25C2E"/>
<path d="M205.215 103.121C221.603 87.2651 230.131 69.0473 224.263 62.4304C218.395 55.8136 200.353 63.3034 183.965 79.1594C167.577 95.0153 159.049 113.233 164.917 119.85C170.785 126.467 188.827 118.977 205.215 103.121Z" fill="#CA4D27"/>
<path d="M33.3377 120.889C38.7795 120.889 42.1283 117.492 42.1283 113.221C42.1283 108.243 39.2625 106.662 33.6919 105.922C30.1499 105.384 29.4093 104.577 29.4093 102.862C29.4093 101.247 30.5685 100.137 32.8547 100.137C35.1409 100.137 36.3645 101.146 36.6865 103.332H41.4843C41.0657 98.5565 38.0389 96.1349 32.8547 96.1349C27.7671 96.1349 24.4827 99.1955 24.4827 103.299C24.4827 107.94 26.8977 109.79 32.7903 110.597C36.1713 111.135 37.1373 111.808 37.1373 113.725C37.1373 115.609 35.6239 116.92 33.3377 116.92C29.9245 116.92 29.0551 115.138 28.8297 112.985H23.8387C24.1285 117.795 27.0265 120.889 33.3377 120.889ZM50.9114 120.889C53.6806 120.889 55.3872 119.544 56.2566 117.761V120.519H60.8934V102.929H56.2566V113.254C56.2566 115.844 54.711 117.122 52.7468 117.122C50.7504 117.122 49.8166 115.978 49.8166 113.591V102.929H45.1798V114.263C45.1798 118.871 47.627 120.889 50.9114 120.889ZM65.1536 120.519H69.7904V102.929H65.1536V120.519ZM67.4398 100.541C68.9532 100.541 70.1124 99.3973 70.1124 97.8838C70.1124 96.3703 68.9532 95.2268 67.4398 95.2268C65.9586 95.2268 64.7994 96.3703 64.7994 97.8838C64.7994 99.3973 65.9586 100.541 67.4398 100.541ZM80.199 120.889C84.6426 120.889 87.283 118.905 87.283 115.104C87.283 111.337 84.9646 110.227 80.7464 109.588C78.2992 109.218 77.4942 108.781 77.4942 107.671C77.4942 106.595 78.3636 105.855 79.877 105.855C81.487 105.855 82.2598 106.528 82.5174 107.974H86.8C86.3814 103.938 83.58 102.525 79.8448 102.525C76.3994 102.525 73.1794 104.341 73.1794 108.007C73.1794 111.438 74.9182 112.783 79.394 113.49C81.809 113.86 82.8072 114.364 82.8072 115.575C82.8072 116.786 81.97 117.492 80.1668 117.492C78.1382 117.492 77.3976 116.584 77.2044 115.003H72.8574C73.0184 118.804 75.6588 120.889 80.199 120.889ZM31.0193 157.291C32.2751 157.291 33.2089 157.056 33.8529 156.82V153.054C33.3055 153.289 32.7903 153.39 32.0819 153.39C30.8905 153.39 30.2143 152.717 30.2143 151.305V142.829H33.7563V139.365H30.2143V135.564H25.5775V139.365H23.4201V142.829H25.5775V151.742C25.5775 155.408 27.4773 157.291 31.0193 157.291ZM44.7672 157.325C49.3718 157.325 52.2698 155.206 52.8172 151.405H48.4058C48.116 152.885 47.0534 153.861 44.896 153.861C42.3522 153.861 40.8388 152.179 40.71 149.253H52.8494V147.908C52.8494 141.618 48.9854 138.961 44.6384 138.961C39.744 138.961 35.9766 142.56 35.9766 148.109V148.378C35.9766 153.995 39.6796 157.325 44.7672 157.325ZM40.7744 146.26C41.1286 143.771 42.5454 142.325 44.6384 142.325C46.8602 142.325 48.1482 143.603 48.3092 146.26H40.7744ZM62.1809 157.325C66.6245 157.325 69.2648 155.341 69.2648 151.54C69.2648 147.773 66.9465 146.663 62.7283 146.024C60.2811 145.654 59.4761 145.217 59.4761 144.107C59.4761 143.031 60.3455 142.291 61.8589 142.291C63.4689 142.291 64.2417 142.964 64.4993 144.41H68.7818C68.3632 140.374 65.5619 138.961 61.8267 138.961C58.3813 138.961 55.1613 140.777 55.1613 144.443C55.1613 147.874 56.9001 149.219 61.3759 149.926C63.7909 150.296 64.7891 150.8 64.7891 152.011C64.7891 153.222 63.9519 153.928 62.1487 153.928C60.1201 153.928 59.3795 153.02 59.1863 151.439H54.8393C55.0003 155.24 57.6407 157.325 62.1809 157.325ZM32.5005 193.761C37.3949 193.761 40.2929 190.868 40.5505 186.698H36.3323C36.1069 188.951 34.5935 190.095 32.7259 190.095C30.1177 190.095 28.6043 188.279 28.6043 184.747V184.478C28.6043 181.115 30.2143 179.231 32.6293 179.231C34.5291 179.231 35.7205 180.173 36.0425 182.225H40.4539C40.0353 177.18 36.4289 175.397 32.5327 175.397C27.7349 175.397 23.8387 178.861 23.8387 184.545V184.814C23.8387 190.566 27.5739 193.761 32.5005 193.761ZM51.3415 190.061C48.7011 190.061 47.2199 188.043 47.2199 184.68V184.411C47.2199 181.048 48.7655 179.097 51.3415 179.097C53.9497 179.097 55.4631 181.115 55.4631 184.478V184.714C55.4631 188.043 53.9497 190.061 51.3415 190.061ZM51.3093 193.761C56.3647 193.761 60.1965 190.229 60.1965 184.68V184.411C60.1965 178.929 56.3969 175.397 51.3415 175.397C46.2861 175.397 42.4543 178.996 42.4543 184.512V184.781C42.4543 190.263 46.2861 193.761 51.3093 193.761ZM63.3268 193.391H67.9958V182.998C67.9958 180.61 69.4448 179.4 71.248 179.4C72.8902 179.4 73.8884 180.409 73.8884 182.662V193.391H78.5252V182.998C78.5252 180.61 79.9742 179.4 81.7774 179.4C83.4518 179.4 84.4178 180.409 84.4178 182.662V193.391H89.0546V182.124C89.0546 177.449 86.6396 175.397 83.5162 175.397C81.391 175.397 79.2014 176.339 77.849 178.458C77.044 176.373 75.3696 175.397 73.1478 175.397C70.6362 175.397 68.833 176.843 67.9958 178.491V175.801H63.3268V193.391ZM93.0425 199.378H97.7115V190.7C98.5809 192.416 100.481 193.761 103.089 193.761C107.275 193.761 110.431 190.498 110.431 184.68V184.411C110.431 178.592 107.211 175.397 103.089 175.397C100.61 175.397 98.6453 176.877 97.7115 178.559V175.801H93.0425V199.378ZM101.704 189.96C99.1605 189.96 97.5505 188.245 97.5505 184.714V184.445C97.5505 180.913 99.2249 179.13 101.672 179.13C104.023 179.13 105.697 180.879 105.697 184.445V184.714C105.697 188.144 104.28 189.96 101.704 189.96ZM119.695 193.727C120.951 193.727 121.885 193.492 122.529 193.256V189.49C121.981 189.725 121.466 189.826 120.758 189.826C119.566 189.826 118.89 189.153 118.89 187.741V179.265H122.432V175.801H118.89V172H114.253V175.801H112.096V179.265H114.253V188.178C114.253 191.844 116.153 193.727 119.695 193.727ZM133.443 193.761C138.048 193.761 140.946 191.642 141.493 187.841H137.082C136.792 189.321 135.73 190.297 133.572 190.297C131.028 190.297 129.515 188.615 129.386 185.689H141.526V184.344C141.526 178.054 137.662 175.397 133.314 175.397C128.42 175.397 124.652 178.996 124.652 184.545V184.814C124.652 190.431 128.355 193.761 133.443 193.761ZM129.45 182.696C129.804 180.207 131.221 178.761 133.314 178.761C135.536 178.761 136.824 180.039 136.985 182.696H129.45ZM150.857 193.761C155.301 193.761 157.941 191.777 157.941 187.976C157.941 184.209 155.623 183.099 151.404 182.46C148.957 182.09 148.152 181.653 148.152 180.543C148.152 179.467 149.022 178.727 150.535 178.727C152.145 178.727 152.918 179.4 153.175 180.846H157.458C157.039 176.81 154.238 175.397 150.503 175.397C147.057 175.397 143.837 177.213 143.837 180.879C143.837 184.31 145.576 185.655 150.052 186.362C152.467 186.732 153.465 187.236 153.465 188.447C153.465 189.658 152.628 190.364 150.825 190.364C148.796 190.364 148.056 189.456 147.862 187.875H143.515C143.676 191.676 146.317 193.761 150.857 193.761Z" fill="white"/>
<path d="M238.332 228.796C240.973 228.796 242.454 227.719 243.42 226.307V228.426H247.96V216.957C247.96 212.181 245.03 210.432 240.908 210.432C236.787 210.432 233.631 212.282 233.341 216.452H237.753C237.946 214.939 238.783 213.963 240.619 213.963C242.744 213.963 243.356 215.107 243.356 217.192V217.898H241.456C236.304 217.898 232.697 219.446 232.697 223.549C232.697 227.248 235.273 228.796 238.332 228.796ZM239.717 225.399C238.01 225.399 237.27 224.558 237.27 223.28C237.27 221.396 238.848 220.791 241.552 220.791H243.356V222.271C243.356 224.221 241.778 225.399 239.717 225.399ZM256.036 228.426H261.284L267.402 210.835H262.894L258.901 223.414L254.876 210.835H249.885L256.036 228.426ZM276.865 228.796C281.47 228.796 284.368 226.677 284.915 222.876H280.504C280.214 224.356 279.151 225.331 276.994 225.331C274.45 225.331 272.937 223.65 272.808 220.724H284.947V219.378C284.947 213.089 281.083 210.432 276.736 210.432C271.842 210.432 268.074 214.031 268.074 219.58V219.849C268.074 225.466 271.777 228.796 276.865 228.796ZM272.872 217.73C273.226 215.241 274.643 213.795 276.736 213.795C278.958 213.795 280.246 215.073 280.407 217.73H272.872ZM295.635 228.796C300.529 228.796 303.427 225.903 303.685 221.733H299.467C299.241 223.986 297.728 225.13 295.86 225.13C293.252 225.13 291.739 223.313 291.739 219.782V219.513C291.739 216.15 293.349 214.266 295.764 214.266C297.664 214.266 298.855 215.208 299.177 217.259H303.588C303.17 212.214 299.563 210.432 295.667 210.432C290.869 210.432 286.973 213.896 286.973 219.58V219.849C286.973 225.6 290.708 228.796 295.635 228.796ZM163.008 264.862H167.677V254.469C167.677 252.081 169.126 250.87 170.93 250.87C172.572 250.87 173.57 251.879 173.57 254.133V264.862H178.207V254.469C178.207 252.081 179.656 250.87 181.459 250.87C183.133 250.87 184.099 251.879 184.099 254.133V264.862H188.736V253.595C188.736 248.919 186.321 246.868 183.198 246.868C181.073 246.868 178.883 247.81 177.531 249.928C176.726 247.843 175.051 246.868 172.829 246.868C170.318 246.868 168.515 248.314 167.677 249.962V247.271H163.008V264.862ZM194.378 270.848H198.886L207.999 247.271H203.523L199.755 257.832L195.666 247.271H190.643L197.34 263.079L194.378 270.848ZM228.447 265.232C234.114 265.232 238.204 262.171 238.783 256.218H233.663C233.245 259.312 231.248 260.826 228.383 260.826C224.583 260.826 222.393 257.933 222.393 252.955V252.686C222.393 247.709 224.712 244.749 228.35 244.749C231.248 244.749 232.794 246.296 233.18 249.189H238.526C237.978 243.269 233.857 240.444 228.318 240.444C221.782 240.444 216.887 245.422 216.887 252.72V252.989C216.887 260.388 220.912 265.232 228.447 265.232ZM249.604 261.532C246.963 261.532 245.482 259.514 245.482 256.151V255.882C245.482 252.518 247.028 250.568 249.604 250.568C252.212 250.568 253.725 252.586 253.725 255.949V256.184C253.725 259.514 252.212 261.532 249.604 261.532ZM249.571 265.232C254.627 265.232 258.459 261.7 258.459 256.151V255.882C258.459 250.399 254.659 246.868 249.604 246.868C244.548 246.868 240.716 250.467 240.716 255.982V256.252C240.716 261.734 244.548 265.232 249.571 265.232ZM261.719 264.862H266.356V247.271H261.719V264.862ZM264.005 244.884C265.519 244.884 266.678 243.74 266.678 242.226C266.678 240.713 265.519 239.569 264.005 239.569C262.524 239.569 261.365 240.713 261.365 242.226C261.365 243.74 262.524 244.884 264.005 244.884ZM270.646 264.862H275.315V254.704C275.315 252.115 276.829 250.837 278.825 250.837C280.886 250.837 281.788 251.98 281.788 254.368V264.862H286.457V253.662C286.457 248.953 284.106 246.868 280.789 246.868C277.988 246.868 276.153 248.314 275.315 250.063V247.271H270.646V264.862ZM296.574 265.232C301.018 265.232 303.658 263.247 303.658 259.447C303.658 255.68 301.34 254.57 297.122 253.931C294.674 253.561 293.869 253.124 293.869 252.014C293.869 250.937 294.739 250.198 296.252 250.198C297.862 250.198 298.635 250.87 298.892 252.316H303.175C302.757 248.28 299.955 246.868 296.22 246.868C292.775 246.868 289.555 248.684 289.555 252.35C289.555 255.781 291.293 257.126 295.769 257.832C298.184 258.202 299.182 258.707 299.182 259.918C299.182 261.128 298.345 261.835 296.542 261.835C294.513 261.835 293.773 260.927 293.58 259.346H289.233C289.394 263.146 292.034 265.232 296.574 265.232Z" fill="#051129"/>
</g>
</svg>

