<svg width="240" height="172" viewBox="0 0 240 172" fill="none" xmlns="http://www.w3.org/2000/svg">
<mask id="mask0_1_3" style="mask-type:alpha" maskUnits="userSpaceOnUse" x="0" y="50" width="240" height="122">
<path d="M0 63C0 55.8203 5.8203 50 13 50H227C234.18 50 240 55.8203 240 63V159C240 166.18 234.18 172 227 172H13C5.8203 172 0 166.18 0 159V63Z" fill="#B8DFE2"/>
</mask>
<g mask="url(#mask0_1_3)">
<rect x="-28" y="-81" width="294" height="273" fill="#B8DFE2"/>
<path d="M157 78V180.968L202 198V88.0645L157 78Z" fill="#F25C2E"/>
<path d="M202 182V88L244 75V182H202Z" fill="#CA4D27"/>
<path d="M202 88L157 78L200 67.5L244 75L202 88Z" fill="white"/>
<ellipse cx="199.5" cy="75" rx="4.5" ry="2" fill="#C4C4C4" fill-opacity="0.6"/>
</g>
<path d="M199.5 0V43.0894L173 31.0244L199.5 0Z" fill="#B8DFE2"/>
<path d="M199.5 0V43.0894L226 31.0244L199.5 0Z" fill="#F25C2E"/>
<path d="M199.5 70.6666L173 31.0243L199.5 43.0894V70.6666Z" fill="#09152D"/>
<path d="M199.5 70.6666L226 31.0243L199.5 43.0894V70.6666Z" fill="#B94522"/>
<path d="M24.576 87.264C28.8 87.264 31.848 85.08 32.28 80.832H28.464C28.152 83.04 26.664 84.12 24.528 84.12C21.696 84.12 20.064 82.056 20.064 78.504V78.312C20.064 74.76 21.792 72.648 24.504 72.648C26.664 72.648 27.816 73.752 28.104 75.816H32.088C31.68 71.592 28.608 69.576 24.48 69.576C19.608 69.576 15.96 73.128 15.96 78.336V78.528C15.96 83.808 18.96 87.264 24.576 87.264ZM40.3451 84.624C38.3771 84.624 37.2731 83.184 37.2731 80.784V80.592C37.2731 78.192 38.4251 76.8 40.3451 76.8C42.2891 76.8 43.4171 78.24 43.4171 80.64V80.808C43.4171 83.184 42.2891 84.624 40.3451 84.624ZM40.3211 87.264C44.0891 87.264 46.9451 84.744 46.9451 80.784V80.592C46.9451 76.68 44.1131 74.16 40.3451 74.16C36.5771 74.16 33.7211 76.728 33.7211 80.664V80.856C33.7211 84.768 36.5771 87.264 40.3211 87.264ZM49.2782 87H52.7582V79.752C52.7582 77.904 53.8862 76.992 55.3742 76.992C56.9102 76.992 57.5822 77.808 57.5822 79.512V87H61.0622V79.008C61.0622 75.648 59.3102 74.16 56.8382 74.16C54.7502 74.16 53.3822 75.192 52.7582 76.44V74.448H49.2782V87ZM64.0438 87H67.5238V79.752C67.5238 77.904 68.6518 76.992 70.1398 76.992C71.6758 76.992 72.3478 77.808 72.3478 79.512V87H75.8278V79.008C75.8278 75.648 74.0758 74.16 71.6038 74.16C69.5158 74.16 68.1478 75.192 67.5238 76.44V74.448H64.0438V87ZM84.5934 87.264C88.0254 87.264 90.1854 85.752 90.5934 83.04H87.3054C87.0894 84.096 86.2974 84.792 84.6894 84.792C82.7934 84.792 81.6654 83.592 81.5694 81.504H90.6174V80.544C90.6174 76.056 87.7374 74.16 84.4974 74.16C80.8494 74.16 78.0414 76.728 78.0414 80.688V80.88C78.0414 84.888 80.8014 87.264 84.5934 87.264ZM81.6174 79.368C81.8814 77.592 82.9374 76.56 84.4974 76.56C86.1534 76.56 87.1134 77.472 87.2334 79.368H81.6174ZM91.158 87H94.734L97.446 82.776L100.086 87H104.094L99.678 80.328L103.686 74.448H100.086L97.782 78.216L95.43 74.448H91.446L95.454 80.592L91.158 87ZM106.163 87H109.619V74.448H106.163V87ZM107.867 72.744C108.995 72.744 109.859 71.928 109.859 70.848C109.859 69.768 108.995 68.952 107.867 68.952C106.763 68.952 105.899 69.768 105.899 70.848C105.899 71.928 106.763 72.744 107.867 72.744ZM118.673 84.624C116.705 84.624 115.601 83.184 115.601 80.784V80.592C115.601 78.192 116.753 76.8 118.673 76.8C120.617 76.8 121.745 78.24 121.745 80.64V80.808C121.745 83.184 120.617 84.624 118.673 84.624ZM118.649 87.264C122.417 87.264 125.273 84.744 125.273 80.784V80.592C125.273 76.68 122.441 74.16 118.673 74.16C114.905 74.16 112.049 76.728 112.049 80.664V80.856C112.049 84.768 114.905 87.264 118.649 87.264ZM127.606 87H131.086V79.752C131.086 77.904 132.214 76.992 133.702 76.992C135.238 76.992 135.91 77.808 135.91 79.512V87H139.39V79.008C139.39 75.648 137.638 74.16 135.166 74.16C133.078 74.16 131.71 75.192 131.086 76.44V74.448H127.606V87Z" fill="white"/>
</svg>
