<svg width="68" height="26" viewBox="0 0 68 26" fill="none" xmlns="http://www.w3.org/2000/svg">
<path d="M10.0994 21.264C14.3234 21.264 17.3714 19.08 17.8034 14.832H13.9874C13.6754 17.04 12.1874 18.12 10.0514 18.12C7.21944 18.12 5.58744 16.056 5.58744 12.504V12.312C5.58744 8.76 7.31544 6.648 10.0274 6.648C12.1874 6.648 13.3394 7.752 13.6274 9.816H17.6114C17.2034 5.592 14.1314 3.576 10.0034 3.576C5.13144 3.576 1.48344 7.128 1.48344 12.336V12.528C1.48344 17.808 4.48344 21.264 10.0994 21.264ZM36.0695 21H39.5255V8.448H36.0695V21ZM37.7735 6.744C38.9015 6.744 39.7655 5.928 39.7655 4.848C39.7655 3.768 38.9015 2.952 37.7735 2.952C36.6695 2.952 35.8055 3.768 35.8055 4.848C35.8055 5.928 36.6695 6.744 37.7735 6.744ZM42.7235 21H46.2035V13.752C46.2035 11.904 47.3315 10.992 48.8195 10.992C50.3555 10.992 51.0275 11.808 51.0275 13.512V21H54.5075V13.008C54.5075 9.648 52.7555 8.16 50.2835 8.16C48.1955 8.16 46.8275 9.192 46.2035 10.44V8.448H42.7235V21ZM62.0491 21.264C65.3611 21.264 67.3291 19.848 67.3291 17.136C67.3291 14.448 65.6011 13.656 62.4571 13.2C60.6331 12.936 60.0331 12.624 60.0331 11.832C60.0331 11.064 60.6811 10.536 61.8091 10.536C63.0091 10.536 63.5851 11.016 63.7771 12.048H66.9691C66.6571 9.168 64.5691 8.16 61.7851 8.16C59.2171 8.16 56.8171 9.456 56.8171 12.072C56.8171 14.52 58.1131 15.48 61.4491 15.984C63.2491 16.248 63.9931 16.608 63.9931 17.472C63.9931 18.336 63.3691 18.84 62.0251 18.84C60.5131 18.84 59.9611 18.192 59.8171 17.064H56.5771C56.6971 19.776 58.6651 21.264 62.0491 21.264Z" fill="#09152D"/>
<path d="M25.983 4V15.3545L19 12.1752L25.983 4Z" fill="#B8DFE2"/>
<path d="M25.9831 4V15.3545L32.9661 12.1752L25.9831 4Z" fill="#F25C2E"/>
<path d="M25.983 22.6213L19 12.1752L25.983 15.3545V22.6213Z" fill="#09152D"/>
<path d="M25.983 22.6213L32.966 12.1752L25.983 15.3545V22.6213Z" fill="#B94522"/>
</svg>
