<svg width="337" height="150" viewBox="0 0 337 150" fill="none" xmlns="http://www.w3.org/2000/svg">
<mask id="mask0_1_3" style="mask-type:alpha" maskUnits="userSpaceOnUse" x="0" y="28" width="337" height="122">
<path d="M0 41C0 33.8203 5.8203 28 13 28H324C331.18 28 337 33.8203 337 41V137C337 144.18 331.18 150 324 150H13C5.82029 150 0 144.18 0 137V41Z" fill="#B8DFE2"/>
</mask>
<g mask="url(#mask0_1_3)">
<rect x="-18" y="-103" width="373" height="273" fill="#B8DFE2"/>
<path d="M233 78V180.968L278 198V88.0645L233 78Z" fill="#F25C2E"/>
<path d="M278 182V88L320 75V182H278Z" fill="#CA4D27"/>
<path d="M278 88L233 78L276 67.5L320 75L278 88Z" fill="white"/>
<ellipse cx="275.5" cy="75" rx="4.5" ry="2" fill="#C4C4C4" fill-opacity="0.6"/>
</g>
<path d="M275.5 0V43.0894L249 31.0244L275.5 0Z" fill="#B8DFE2"/>
<path d="M275.5 0V43.0894L302 31.0244L275.5 0Z" fill="#F25C2E"/>
<path d="M275.5 70.6667L249 31.0244L275.5 43.0895V70.6667Z" fill="#09152D"/>
<path d="M275.5 70.6667L302 31.0244L275.5 43.0895V70.6667Z" fill="#B94522"/>
<path d="M18.848 65H22.712V58.76H24.896C28.808 58.76 31.328 57.032 31.328 53.408V53.312C31.328 49.688 28.952 47.84 24.776 47.84H18.848V65ZM22.712 56.048V50.792H24.68C26.528 50.792 27.584 51.512 27.584 53.336V53.432C27.584 55.136 26.576 56.048 24.68 56.048H22.712ZM33.5594 65H37.0394V58.712C37.0394 56.312 38.5274 55.472 41.0954 55.496V52.256C39.0554 52.28 37.8314 53.168 37.0394 54.848V52.448H33.5594V65ZM49.0014 62.624C47.0334 62.624 45.9294 61.184 45.9294 58.784V58.592C45.9294 56.192 47.0814 54.8 49.0014 54.8C50.9454 54.8 52.0734 56.24 52.0734 58.64V58.808C52.0734 61.184 50.9454 62.624 49.0014 62.624ZM48.9774 65.264C52.7454 65.264 55.6014 62.744 55.6014 58.784V58.592C55.6014 54.68 52.7694 52.16 49.0014 52.16C45.2334 52.16 42.3774 54.728 42.3774 58.664V58.856C42.3774 62.768 45.2334 65.264 48.9774 65.264ZM58.5104 65H61.9664V54.92H64.6784V52.448H61.9664V50.912C61.9664 49.952 62.4224 49.256 63.5024 49.256C64.0064 49.256 64.3664 49.328 64.6784 49.448V46.832C64.1984 46.688 63.7184 46.616 62.9744 46.616C60.1904 46.616 58.5104 48.08 58.5104 51.008V52.448H56.8544V54.92H58.5104V65ZM66.6789 65H70.1349V52.448H66.6789V65ZM68.3829 50.744C69.5109 50.744 70.3749 49.928 70.3749 48.848C70.3749 47.768 69.5109 46.952 68.3829 46.952C67.2789 46.952 66.4149 47.768 66.4149 48.848C66.4149 49.928 67.2789 50.744 68.3829 50.744ZM73.4289 65H76.8849V46.76H73.4289V65Z" fill="white"/>
</svg>
